<svg width="312" height="445" viewBox="0 0 312 445" fill="none" xmlns="http://www.w3.org/2000/svg">
<path d="M117.995 13.2158C117.215 13.4944 116.809 14.3527 117.087 15.1329C117.366 15.9131 118.224 16.3196 119.004 16.041L117.995 13.2158ZM236 14.6284L236.96 13.4761L236 14.6284ZM236 120.128L237.252 120.955L236 120.128ZM18 120.128L16.9557 119.052L18 120.128ZM18 227.128L19.3227 226.421L18 227.128ZM293.5 227.128L294.744 226.29L293.5 227.128ZM293.5 335.628L292.202 334.876L293.5 335.628ZM70.5 335.628L69.1935 334.891L70.5 335.628ZM69.0757 443.599C69.3357 444.386 70.1841 444.813 70.9707 444.553C71.7573 444.293 72.1842 443.444 71.9242 442.658L69.0757 443.599ZM70.3191 437.525C70.0795 436.732 69.2425 436.283 68.4494 436.523C67.6564 436.762 67.2077 437.599 67.4472 438.392L70.3191 437.525ZM63.0966 422.607C63.2964 423.411 64.1101 423.901 64.914 423.702C65.718 423.502 66.2078 422.688 66.0081 421.884L63.0966 422.607ZM63.6207 411.355C63.4562 410.543 62.6646 410.018 61.8527 410.183C61.0408 410.347 60.516 411.139 60.6805 411.951L63.6207 411.355ZM58.2396 395.667C58.306 396.493 59.0292 397.108 59.855 397.042C60.6807 396.976 61.2964 396.252 61.23 395.427L58.2396 395.667ZM61.0074 384.488C61.0108 383.659 60.342 382.985 59.5135 382.982C58.6851 382.978 58.0108 383.647 58.0074 384.475L61.0074 384.488ZM58.6488 367.43C58.57 368.254 59.1746 368.987 59.9993 369.065C60.824 369.144 61.5564 368.54 61.6352 367.715L58.6488 367.43ZM63.4242 356.802C63.6199 355.997 63.126 355.186 62.321 354.99C61.516 354.795 60.7048 355.289 60.5091 356.094L63.4242 356.802ZM66.5079 339.948C66.1395 340.69 66.4424 341.591 67.1844 341.959C67.9264 342.327 68.8266 342.024 69.195 341.282L66.5079 339.948ZM74.3952 332.224C74.8671 331.543 74.6977 330.608 74.0169 330.136C73.336 329.664 72.4015 329.834 71.9296 330.514L74.3952 332.224ZM82.5507 319.642C81.8728 320.118 81.7091 321.053 82.1852 321.731C82.6614 322.409 83.5969 322.573 84.2748 322.097L82.5507 319.642ZM92.6295 317.751C93.4079 317.468 93.8091 316.607 93.5255 315.828C93.242 315.05 92.3812 314.649 91.6028 314.932L92.6295 317.751ZM106.543 312.209C105.715 312.236 105.066 312.929 105.092 313.757C105.119 314.585 105.812 315.234 106.64 315.208L106.543 312.209ZM116.298 315.623C117.121 315.714 117.862 315.12 117.953 314.296C118.044 313.473 117.45 312.732 116.626 312.641L116.298 315.623ZM131.356 315.38C130.552 315.178 129.737 315.666 129.535 316.469C129.333 317.273 129.821 318.087 130.625 318.289L131.356 315.38ZM140.047 320.967C140.838 321.216 141.68 320.776 141.928 319.986C142.176 319.195 141.737 318.353 140.946 318.105L140.047 320.967ZM154.981 322.986C154.206 322.694 153.341 323.086 153.049 323.861C152.758 324.637 153.15 325.502 153.925 325.794L154.981 322.986ZM163.093 329.367C163.862 329.676 164.735 329.303 165.044 328.534C165.353 327.765 164.98 326.892 164.211 326.583L163.093 329.367ZM177.914 332.233C177.15 331.913 176.271 332.272 175.95 333.036C175.63 333.8 175.989 334.679 176.753 335L177.914 332.233ZM185.854 338.823C186.618 339.143 187.497 338.783 187.817 338.019C188.137 337.255 187.777 336.376 187.013 336.056L185.854 338.823ZM200.678 341.684C199.909 341.376 199.035 341.749 198.727 342.518C198.419 343.287 198.793 344.16 199.562 344.469L200.678 341.684ZM208.794 348.059C209.57 348.35 210.434 347.957 210.725 347.182C211.016 346.406 210.624 345.541 209.848 345.25L208.794 348.059ZM223.728 350.061C222.937 349.813 222.096 350.254 221.848 351.045C221.601 351.835 222.042 352.677 222.832 352.924L223.728 350.061ZM232.432 355.639C233.235 355.839 234.05 355.351 234.25 354.547C234.451 353.743 233.962 352.929 233.159 352.728L232.432 355.639ZM247.49 355.378C246.666 355.288 245.926 355.883 245.836 356.706C245.746 357.53 246.341 358.27 247.164 358.36L247.49 355.378ZM257.239 358.79C258.067 358.764 258.718 358.071 258.691 357.243C258.665 356.415 257.973 355.765 257.145 355.791L257.239 358.79ZM271.172 353.286C270.392 353.565 269.986 354.424 270.265 355.204C270.544 355.984 271.403 356.39 272.183 356.111L271.172 353.286ZM281.267 351.474C281.949 351.004 282.122 350.071 281.652 349.388C281.183 348.705 280.249 348.533 279.566 349.002L281.267 351.474ZM289.565 338.985C289.085 339.66 289.243 340.596 289.918 341.076C290.593 341.557 291.529 341.399 292.009 340.724L289.565 338.985ZM297.431 331.768C297.836 331.045 297.578 330.131 296.855 329.726C296.133 329.321 295.218 329.579 294.814 330.301L297.431 331.768ZM301.913 316.29C301.581 317.049 301.928 317.933 302.687 318.265C303.446 318.597 304.33 318.25 304.662 317.491L301.913 316.29ZM308.402 307.414C308.64 306.621 308.19 305.784 307.397 305.546C306.604 305.307 305.767 305.757 305.529 306.55L308.402 307.414ZM308.324 291.31C308.266 292.136 308.89 292.852 309.716 292.91C310.543 292.967 311.259 292.343 311.316 291.517L308.324 291.31ZM311.496 281.945C311.494 281.117 310.821 280.447 309.992 280.449C309.164 280.451 308.494 281.124 308.496 281.953L311.496 281.945ZM308.199 269.514C308.249 270.341 308.961 270.97 309.788 270.92C310.615 270.869 311.244 270.158 311.193 269.331L308.199 269.514ZM310.28 260.882C310.146 260.064 309.375 259.51 308.557 259.644C307.74 259.778 307.186 260.55 307.32 261.367L310.28 260.882ZM304.134 249.591C304.43 250.365 305.297 250.752 306.071 250.456C306.845 250.16 307.232 249.293 306.936 248.519L304.134 249.591ZM303.444 240.753C303.066 240.015 302.162 239.724 301.425 240.102C300.687 240.479 300.396 241.383 300.774 242.12L303.444 240.753ZM294.544 231.439C294.992 232.136 295.921 232.337 296.617 231.889C297.314 231.441 297.515 230.513 297.067 229.816L294.544 231.439ZM291.631 222.019C291.118 221.369 290.174 221.258 289.524 221.771C288.874 222.284 288.763 223.228 289.276 223.878L291.631 222.019ZM278.782 213.611C279.448 214.103 280.387 213.962 280.879 213.295C281.371 212.629 281.23 211.69 280.563 211.198L278.782 213.611ZM271.622 205.884C270.871 205.534 269.979 205.859 269.629 206.61C269.279 207.36 269.603 208.253 270.354 208.603L271.622 205.884ZM256.275 204.333C257.093 204.467 257.864 203.913 257.998 203.096C258.132 202.278 257.578 201.507 256.761 201.373L256.275 204.333ZM246.482 200.465C245.654 200.45 244.97 201.108 244.954 201.937C244.938 202.765 245.597 203.449 246.425 203.465L246.482 200.465ZM231.491 204.437C232.312 204.322 232.884 203.565 232.77 202.744C232.656 201.924 231.898 201.351 231.078 201.465L231.491 204.437ZM221.009 203.265C220.199 203.439 219.684 204.237 219.858 205.047C220.033 205.857 220.831 206.372 221.641 206.198L221.009 203.265ZM207.07 209.987C207.864 209.749 208.314 208.913 208.076 208.119C207.839 207.326 207.002 206.875 206.209 207.113L207.07 209.987ZM196.511 210.225C195.727 210.492 195.307 211.344 195.574 212.128C195.841 212.913 196.694 213.332 197.478 213.065L196.511 210.225ZM183.231 218.245C184.005 217.949 184.391 217.081 184.094 216.308C183.798 215.534 182.93 215.148 182.157 215.445L183.231 218.245ZM172.712 219.162C171.943 219.471 171.571 220.344 171.88 221.113C172.189 221.882 173.063 222.254 173.831 221.945L172.712 219.162ZM159.799 227.709C160.563 227.39 160.925 226.512 160.606 225.748C160.287 224.983 159.409 224.621 158.645 224.94L159.799 227.709ZM149.295 228.847C148.53 229.167 148.17 230.045 148.489 230.81C148.809 231.574 149.687 231.935 150.452 231.615L149.295 228.847ZM136.394 237.432C137.161 237.12 137.53 236.245 137.218 235.477C136.905 234.71 136.03 234.341 135.263 234.653L136.394 237.432ZM125.871 238.404C125.099 238.706 124.718 239.576 125.019 240.347C125.321 241.119 126.191 241.5 126.962 241.199L125.871 238.404ZM112.695 246.505C113.477 246.232 113.889 245.376 113.616 244.594C113.342 243.812 112.486 243.4 111.704 243.674L112.695 246.505ZM102.139 246.841C101.348 247.086 100.906 247.926 101.151 248.718C101.396 249.509 102.237 249.951 103.028 249.706L102.139 246.841ZM88.2147 253.711C89.0229 253.529 89.5307 252.726 89.3489 251.918C89.1671 251.11 88.3645 250.602 87.5563 250.784L88.2147 253.711ZM77.7165 252.622C76.8966 252.742 76.3285 253.503 76.4476 254.322C76.5666 255.142 77.3277 255.71 78.1475 255.591L77.7165 252.622ZM62.7655 256.599C63.5937 256.621 64.2825 255.967 64.3041 255.139C64.3256 254.311 63.6718 253.622 62.8436 253.6L62.7655 256.599ZM53.0275 252.58C52.2138 252.424 51.4282 252.958 51.2729 253.772C51.1175 254.585 51.6513 255.371 52.465 255.526L53.0275 252.58ZM37.7985 250.323C38.5239 250.723 39.4363 250.459 39.8363 249.734C40.2363 249.008 39.9725 248.096 39.2471 247.696L37.7985 250.323ZM31.2855 242.05C30.6667 241.5 29.7185 241.555 29.1677 242.173C28.6169 242.792 28.672 243.74 29.2907 244.291L31.2855 242.05ZM19.3454 232.416C19.7894 233.116 20.7162 233.323 21.4157 232.879C22.1151 232.435 22.3223 231.508 21.8784 230.809L19.3454 232.416ZM16.8542 221.805C16.4644 221.074 15.5559 220.798 14.8249 221.187C14.0938 221.577 13.8172 222.486 14.2069 223.217L16.8542 221.805ZM7.11106 209.101C7.45127 209.856 8.33939 210.193 9.09474 209.853C9.85009 209.513 10.1866 208.624 9.84641 207.869L7.11106 209.101ZM6.11735 198.278C5.86559 197.489 5.02168 197.053 4.23244 197.305C3.4432 197.557 3.00748 198.401 3.25925 199.19L6.11735 198.278ZM0.192744 183.469C0.253518 184.295 0.972549 184.916 1.79874 184.855C2.62494 184.794 3.24543 184.075 3.18466 183.249L0.192744 183.469ZM3.01265 171.908C3.0178 171.079 2.35041 170.403 1.52199 170.398C0.693583 170.393 0.0178545 171.061 0.0127116 171.889L3.01265 171.908ZM0.95559 153.061C0.855134 153.884 1.44031 154.632 2.26263 154.732C3.08494 154.832 3.833 154.247 3.93345 153.425L0.95559 153.061ZM6.41668 141.517C6.66562 140.727 6.2269 139.884 5.43677 139.635C4.64663 139.386 3.80428 139.825 3.55534 140.615L6.41668 141.517ZM12.6199 123.757C12.0954 124.399 12.1899 125.344 12.8311 125.868C13.4723 126.393 14.4174 126.298 14.9419 125.657L12.6199 123.757ZM22.9009 117.773C23.5433 117.25 23.6402 116.305 23.1172 115.662C22.5942 115.02 21.6494 114.923 21.0069 115.446L22.9009 117.773ZM34.7753 107.169C34.0105 107.488 33.6486 108.366 33.967 109.131C34.2854 109.896 35.1636 110.257 35.9284 109.939L34.7753 107.169ZM45.6491 106.957C46.4603 106.79 46.982 105.996 46.8143 105.185C46.6465 104.373 45.8529 103.852 45.0416 104.019L45.6491 106.957ZM61.01 102.719C60.1819 102.695 59.4912 103.347 59.4673 104.175C59.4434 105.003 60.0953 105.694 60.9234 105.718L61.01 102.719ZM71.2074 106.626C72.0275 106.743 72.7873 106.173 72.9044 105.353C73.0215 104.533 72.4516 103.773 71.6315 103.656L71.2074 106.626ZM87.1812 106.885C86.3803 106.673 85.5593 107.151 85.3474 107.952C85.1355 108.753 85.613 109.574 86.4138 109.785L87.1812 106.885ZM96.3823 112.715C97.1712 112.968 98.0157 112.533 98.2685 111.744C98.5213 110.956 98.0866 110.111 97.2977 109.858L96.3823 112.715ZM112.209 115.077C111.433 114.786 110.568 115.18 110.278 115.956C109.988 116.732 110.381 117.596 111.157 117.887L112.209 115.077ZM120.92 121.639C121.691 121.942 122.561 121.562 122.864 120.791C123.167 120.02 122.787 119.149 122.016 118.847L120.92 121.639ZM136.641 124.643C135.87 124.338 134.999 124.716 134.695 125.486C134.39 126.257 134.768 127.128 135.538 127.433L136.641 124.643ZM145.324 131.237C146.099 131.532 146.965 131.142 147.259 130.368C147.553 129.594 147.164 128.727 146.39 128.433L145.324 131.237ZM161.133 133.698C160.346 133.44 159.498 133.869 159.24 134.656C158.982 135.443 159.411 136.29 160.198 136.548L161.133 133.698ZM170.305 139.583C171.105 139.798 171.928 139.324 172.143 138.525C172.359 137.725 171.885 136.902 171.085 136.686L170.305 139.583ZM186.29 139.807C185.468 139.7 184.716 140.28 184.609 141.101C184.502 141.923 185.082 142.675 185.903 142.782L186.29 139.807ZM196.55 143.455C197.378 143.446 198.042 142.767 198.033 141.938C198.024 141.11 197.345 140.446 196.516 140.455L196.55 143.455ZM211.517 138.093C210.731 138.355 210.306 139.204 210.568 139.99C210.83 140.776 211.679 141.201 212.465 140.94L211.517 138.093ZM222.237 136.266C222.934 135.818 223.135 134.89 222.687 134.193C222.238 133.496 221.31 133.295 220.613 133.743L222.237 136.266ZM231.712 123.505C231.198 124.155 231.307 125.098 231.957 125.613C232.606 126.127 233.549 126.017 234.064 125.368L231.712 123.505ZM240.512 115.924C240.956 115.225 240.749 114.298 240.049 113.854C239.35 113.41 238.423 113.618 237.979 114.317L240.512 115.924ZM246.758 98.9241C246.393 99.6682 246.702 100.567 247.446 100.931C248.19 101.295 249.088 100.987 249.452 100.243L246.758 98.9241ZM254.099 89.0509C254.363 88.2658 253.94 87.4151 253.155 87.1509C252.37 86.8867 251.519 87.309 251.255 88.0942L254.099 89.0509ZM254.775 70.9724C254.71 71.7983 255.327 72.5202 256.153 72.5849C256.979 72.6495 257.701 72.0324 257.766 71.2065L254.775 70.9724ZM257.854 59.4082C257.811 58.5809 257.105 57.9453 256.278 57.9885C255.451 58.0318 254.815 58.7375 254.858 59.5648L257.854 59.4082ZM252.369 43.1694C252.585 43.969 253.409 44.4418 254.208 44.2253C255.008 44.0089 255.481 43.1852 255.264 42.3855L252.369 43.1694ZM251.228 31.5581C250.864 30.814 249.966 30.5059 249.221 30.87C248.477 31.2341 248.169 32.1325 248.533 32.8766L251.228 31.5581ZM239.08 19.5014C239.66 20.0929 240.609 20.1021 241.201 19.5221C241.792 18.942 241.802 17.9923 241.221 17.4008L239.08 19.5014ZM232.916 10.4769C232.225 10.0209 231.295 10.2118 230.838 10.9034C230.382 11.595 230.573 12.5253 231.265 12.9814L232.916 10.4769ZM218.451 6.9712C219.239 7.22481 220.084 6.79109 220.338 6.00244C220.592 5.21379 220.158 4.36886 219.369 4.11524L218.451 6.9712ZM209.731 1.72596C208.916 1.57717 208.135 2.11719 207.986 2.93215C207.837 3.7471 208.377 4.52838 209.192 4.67718L209.731 1.72596ZM194.882 3.16733C195.71 3.19928 196.407 2.55411 196.439 1.7263C196.471 0.898492 195.826 0.201516 194.998 0.169564L194.882 3.16733ZM185.151 0.149062C184.323 0.175496 183.673 0.868157 183.699 1.69616C183.726 2.52417 184.418 3.17397 185.246 3.14753L185.151 0.149062ZM170.799 4.236C171.622 4.14118 172.212 3.39716 172.117 2.57417C172.023 1.75119 171.279 1.16089 170.456 1.25571L170.799 4.236ZM160.738 2.60206C159.92 2.73367 159.364 3.50341 159.495 4.32132C159.627 5.13922 160.396 5.69557 161.214 5.56396L160.738 2.60206ZM146.959 8.29177C147.768 8.11336 148.279 7.31292 148.101 6.50393C147.922 5.69494 147.122 5.18375 146.313 5.36216L146.959 8.29177ZM136.765 7.64393C135.963 7.85038 135.48 8.66812 135.686 9.47042C135.893 10.2727 136.71 10.7557 137.513 10.5493L136.765 7.64393ZM123.529 14.5429C124.319 14.2929 124.757 13.4499 124.507 12.6601C124.257 11.8703 123.414 11.4327 122.624 11.6827L123.529 14.5429ZM70.5 443.128C71.9242 442.658 71.9242 442.658 71.9242 442.658C71.9242 442.658 71.9242 442.658 71.9241 442.658C71.9241 442.657 71.924 442.657 71.9239 442.657C71.9236 442.656 71.9232 442.655 71.9226 442.653C71.9215 442.649 71.9197 442.644 71.9174 442.637C71.9126 442.623 71.9055 442.601 71.8959 442.572C71.8769 442.514 71.8484 442.426 71.8112 442.311C71.7366 442.082 71.6268 441.741 71.4866 441.299C71.2061 440.416 70.804 439.13 70.3191 437.525L67.4472 438.392C67.9366 440.013 68.343 441.312 68.6273 442.207C68.7695 442.655 68.8812 443.002 68.9575 443.237C68.9957 443.355 69.025 443.445 69.045 443.505C69.0549 443.536 69.0625 443.559 69.0677 443.575C69.0702 443.582 69.0722 443.588 69.0736 443.593C69.0742 443.595 69.0748 443.596 69.0751 443.597C69.0753 443.598 69.0754 443.598 69.0755 443.599C69.0756 443.599 69.0756 443.599 69.0757 443.599C69.0757 443.599 69.0757 443.599 69.0757 443.599C69.0757 443.599 69.0757 443.599 70.5 443.128ZM66.0081 421.884C65.1712 418.516 64.3492 414.95 63.6207 411.355L60.6805 411.951C61.4192 415.597 62.2513 419.206 63.0966 422.607L66.0081 421.884ZM61.23 395.427C61.0808 393.571 61 391.795 61 390.128H58C58 391.89 58.0853 393.747 58.2396 395.667L61.23 395.427ZM61 390.128C61 388.176 61 386.3 61.0074 384.488L58.0074 384.475C58 386.295 58 388.177 58 390.128H61ZM61.6352 367.715C61.9931 363.968 62.5521 360.389 63.4242 356.802L60.5091 356.094C59.5976 359.843 59.0179 363.566 58.6488 367.43L61.6352 367.715ZM69.195 341.282C69.9856 339.69 70.8535 338.055 71.8064 336.365L69.1935 334.891C68.2164 336.623 67.3236 338.305 66.5079 339.948L69.195 341.282ZM71.8064 336.365C72.6356 334.895 73.4992 333.516 74.3952 332.224L71.9296 330.514C70.9785 331.887 70.0661 333.345 69.1935 334.891L71.8064 336.365ZM84.2748 322.097C86.895 320.257 89.6849 318.824 92.6295 317.751L91.6028 314.932C88.4201 316.092 85.3944 317.645 82.5507 319.642L84.2748 322.097ZM106.64 315.208C109.748 315.108 112.972 315.257 116.298 315.623L116.626 312.641C113.18 312.262 109.813 312.104 106.543 312.209L106.64 315.208ZM130.625 318.289C133.713 319.065 136.857 319.965 140.047 320.967L140.946 318.105C137.709 317.089 134.508 316.172 131.356 315.38L130.625 318.289ZM153.925 325.794C156.958 326.935 160.017 328.132 163.093 329.367L164.211 326.583C161.119 325.342 158.039 324.136 154.981 322.986L153.925 325.794ZM176.753 335C179.771 336.265 182.831 337.556 185.854 338.823L187.013 336.056C183.971 334.78 180.959 333.511 177.914 332.233L176.753 335ZM199.562 344.469C202.654 345.708 205.734 346.911 208.794 348.059L209.848 345.25C206.813 344.112 203.754 342.917 200.678 341.684L199.562 344.469ZM222.832 352.924C226.072 353.937 229.275 354.85 232.432 355.639L233.159 352.728C230.067 351.956 226.92 351.059 223.728 350.061L222.832 352.924ZM247.164 358.36C250.605 358.736 253.97 358.893 257.239 358.79L257.145 355.791C254.035 355.889 250.812 355.741 247.49 355.378L247.164 358.36ZM272.183 356.111C275.372 354.969 278.408 353.44 281.267 351.474L279.566 349.002C276.929 350.816 274.126 352.229 271.172 353.286L272.183 356.111ZM292.009 340.724C292.977 339.363 293.907 337.916 294.798 336.381L292.202 334.876C291.356 336.334 290.477 337.703 289.565 338.985L292.009 340.724ZM294.798 336.381C295.706 334.814 296.584 333.279 297.431 331.768L294.814 330.301C293.976 331.797 293.105 333.319 292.202 334.876L294.798 336.381ZM304.662 317.491C306.127 314.138 307.382 310.806 308.402 307.414L305.529 306.55C304.548 309.81 303.337 313.029 301.913 316.29L304.662 317.491ZM311.316 291.517C311.438 289.761 311.5 287.968 311.5 286.128H308.5C308.5 287.9 308.44 289.624 308.324 291.31L311.316 291.517ZM311.5 286.128C311.5 284.689 311.5 283.296 311.496 281.945L308.496 281.953C308.5 283.299 308.5 284.688 308.5 286.128H311.5ZM311.193 269.331C311.014 266.412 310.731 263.628 310.28 260.882L307.32 261.367C307.751 263.991 308.025 266.673 308.199 269.514L311.193 269.331ZM306.936 248.519C305.981 246.025 304.83 243.459 303.444 240.753L300.774 242.12C302.116 244.741 303.222 247.208 304.134 249.591L306.936 248.519ZM297.067 229.816C296.331 228.671 295.557 227.497 294.744 226.29L292.256 227.966C293.058 229.157 293.82 230.314 294.544 231.439L297.067 229.816ZM294.744 226.29C293.736 224.794 292.698 223.371 291.631 222.019L289.276 223.878C290.295 225.168 291.289 226.53 292.256 227.966L294.744 226.29ZM280.563 211.198C277.711 209.092 274.726 207.331 271.622 205.884L270.354 208.603C273.279 209.966 276.092 211.626 278.782 213.611L280.563 211.198ZM256.761 201.373C253.418 200.824 249.988 200.532 246.482 200.465L246.425 203.465C249.802 203.529 253.088 203.81 256.275 204.333L256.761 201.373ZM231.078 201.465C227.768 201.925 224.409 202.532 221.009 203.265L221.641 206.198C224.977 205.479 228.263 204.886 231.491 204.437L231.078 201.465ZM206.209 207.113C203.001 208.074 199.766 209.117 196.511 210.225L197.478 213.065C200.703 211.967 203.902 210.936 207.07 209.987L206.209 207.113ZM182.157 215.445C179.018 216.649 175.868 217.892 172.712 219.162L173.831 221.945C176.976 220.68 180.11 219.443 183.231 218.245L182.157 215.445ZM158.645 224.94C155.526 226.24 152.406 227.547 149.295 228.847L150.452 231.615C153.566 230.314 156.682 229.008 159.799 227.709L158.645 224.94ZM135.263 234.653C132.116 235.934 128.984 237.189 125.871 238.404L126.962 241.199C130.091 239.977 133.237 238.717 136.394 237.432L135.263 234.653ZM111.704 243.674C108.482 244.802 105.291 245.863 102.139 246.841L103.028 249.706C106.219 248.716 109.444 247.643 112.695 246.505L111.704 243.674ZM87.5563 250.784C84.2116 251.536 80.9291 252.156 77.7165 252.622L78.1475 255.591C81.4459 255.112 84.8047 254.478 88.2147 253.711L87.5563 250.784ZM62.8436 253.6C59.4552 253.512 56.1797 253.181 53.0275 252.58L52.465 255.526C55.7941 256.162 59.2329 256.507 62.7655 256.599L62.8436 253.6ZM39.2471 247.696C36.4555 246.157 33.7976 244.287 31.2855 242.05L29.2907 244.291C31.9692 246.676 34.8101 248.675 37.7985 250.323L39.2471 247.696ZM21.8784 230.809C20.9979 229.422 20.1456 227.96 19.3227 226.421L16.6772 227.836C17.5338 229.438 18.4235 230.964 19.3454 232.416L21.8784 230.809ZM19.3227 226.421C18.4772 224.84 17.6548 223.307 16.8542 221.805L14.2069 223.217C15.0085 224.72 15.8344 226.26 16.6772 227.836L19.3227 226.421ZM9.84641 207.869C8.39813 204.654 7.1432 201.494 6.11735 198.278L3.25925 199.19C4.32749 202.539 5.62734 205.807 7.11106 209.101L9.84641 207.869ZM3.18466 183.249C3.06292 181.594 3 179.891 3 178.128H0C0 179.962 0.0654882 181.739 0.192744 183.469L3.18466 183.249ZM3 178.128C3 176.017 3.00001 173.945 3.01265 171.908L0.0127116 171.889C-5.00679e-06 173.937 0 176.019 0 178.128H3ZM3.93345 153.425C4.44018 149.277 5.22006 145.315 6.41668 141.517L3.55534 140.615C2.29142 144.627 1.47914 148.776 0.95559 153.061L3.93345 153.425ZM14.9419 125.657C16.1747 124.15 17.5373 122.666 19.0442 121.205L16.9557 119.052C15.3689 120.59 13.9279 122.159 12.6199 123.757L14.9419 125.657ZM19.0442 121.205C20.3101 119.978 21.596 118.835 22.9009 117.773L21.0069 115.446C19.6333 116.564 18.2826 117.765 16.9557 119.052L19.0442 121.205ZM35.9284 109.939C39.0842 108.625 42.3275 107.644 45.6491 106.957L45.0416 104.019C41.5434 104.743 38.1166 105.778 34.7753 107.169L35.9284 109.939ZM60.9234 105.718C64.2957 105.815 67.7266 106.129 71.2074 106.626L71.6315 103.656C68.0531 103.145 64.5088 102.82 61.01 102.719L60.9234 105.718ZM86.4138 109.785C89.7122 110.658 93.0374 111.643 96.3823 112.715L97.2977 109.858C93.9119 108.773 90.5369 107.773 87.1812 106.885L86.4138 109.785ZM111.157 117.887C114.408 119.103 117.664 120.362 120.92 121.639L122.016 118.847C118.751 117.565 115.479 116.3 112.209 115.077L111.157 117.887ZM135.538 127.433C138.814 128.727 142.079 130.004 145.324 131.237L146.39 128.433C143.162 127.206 139.91 125.935 136.641 124.643L135.538 127.433ZM160.198 136.548C163.602 137.665 166.974 138.687 170.305 139.583L171.085 136.686C167.815 135.807 164.495 134.8 161.133 133.698L160.198 136.548ZM185.903 142.782C189.523 143.252 193.077 143.493 196.55 143.455L196.516 140.455C193.205 140.492 189.792 140.262 186.29 139.807L185.903 142.782ZM212.465 140.94C215.858 139.81 219.122 138.271 222.237 136.266L220.613 133.743C217.716 135.608 214.68 137.04 211.517 138.093L212.465 140.94ZM234.064 125.368C235.158 123.987 236.221 122.517 237.252 120.955L234.748 119.302C233.762 120.795 232.75 122.195 231.712 123.505L234.064 125.368ZM237.252 120.955C238.376 119.252 239.463 117.577 240.512 115.924L237.979 114.317C236.942 115.952 235.864 117.611 234.748 119.302L237.252 120.955ZM249.452 100.243C251.268 96.5323 252.827 92.8284 254.099 89.0509L251.255 88.0942C250.032 91.7299 248.525 95.3126 246.758 98.9241L249.452 100.243ZM257.766 71.2065C257.921 69.2245 258 67.2013 258 65.1284H255C255 67.1249 254.924 69.0699 254.775 70.9724L257.766 71.2065ZM258 65.1284C258 63.194 257.953 61.2868 257.854 59.4082L254.858 59.5648C254.954 61.3881 255 63.2429 255 65.1284H258ZM255.264 42.3855C254.242 38.6086 252.909 34.9941 251.228 31.5581L248.533 32.8766C250.124 36.1278 251.392 39.5617 252.369 43.1694L255.264 42.3855ZM241.221 17.4008C239.891 16.0446 238.472 14.7359 236.96 13.4761L235.04 15.7807C236.476 16.9775 237.821 18.2182 239.08 19.5014L241.221 17.4008ZM236.96 13.4761C235.669 12.4004 234.319 11.4021 232.916 10.4769L231.265 12.9814C232.578 13.8474 233.838 14.7793 235.04 15.7807L236.96 13.4761ZM219.369 4.11524C216.265 3.11707 213.039 2.33 209.731 1.72596L209.192 4.67718C212.387 5.26056 215.485 6.01753 218.451 6.9712L219.369 4.11524ZM194.998 0.169564C191.733 0.04354 188.44 0.0440445 185.151 0.149062L185.246 3.14753C188.473 3.04453 191.695 3.0443 194.882 3.16733L194.998 0.169564ZM170.456 1.25571C167.154 1.63611 163.903 2.09269 160.738 2.60206L161.214 5.56396C164.34 5.06106 167.546 4.61081 170.799 4.236L170.456 1.25571ZM146.313 5.36216C142.906 6.11338 139.704 6.88778 136.765 7.64393L137.513 10.5493C140.421 9.801 143.589 9.03482 146.959 8.29177L146.313 5.36216ZM122.624 11.6827C121.15 12.1494 119.996 12.5313 119.21 12.7972C118.816 12.9302 118.515 13.0342 118.31 13.1052C118.208 13.1408 118.13 13.1681 118.078 13.1866C118.051 13.1959 118.031 13.2031 118.018 13.2079C118.011 13.2104 118.005 13.2122 118.002 13.2136C118 13.2142 117.998 13.2147 117.997 13.2151C117.997 13.2153 117.996 13.2154 117.996 13.2155C117.996 13.2156 117.996 13.2157 117.996 13.2157C117.996 13.2157 117.996 13.2157 117.996 13.2157C117.995 13.2158 117.995 13.2158 118.5 14.6284C119.004 16.041 119.004 16.041 119.004 16.041C119.004 16.041 119.004 16.041 119.004 16.041C119.004 16.041 119.004 16.041 119.004 16.041C119.005 16.041 119.005 16.0409 119.005 16.0408C119.006 16.0406 119.007 16.0403 119.008 16.0398C119.011 16.0388 119.015 16.0373 119.021 16.0352C119.033 16.031 119.051 16.0245 119.075 16.0159C119.124 15.9987 119.198 15.9728 119.296 15.9387C119.492 15.8704 119.786 15.7693 120.17 15.6393C120.94 15.3791 122.075 15.0033 123.529 14.5429L122.624 11.6827Z" fill="#5E83FC"/>
<circle cx="237" cy="15.1283" r="8" fill="#5E83FC"/>
<circle cx="42" cy="106.128" r="8" fill="#5E83FC"/>
<circle cx="274" cy="209.128" r="8" fill="#5E83FC"/>
<circle cx="71" cy="335.128" r="8" fill="#5E83FC"/>
</svg>
