<svg width="14" height="14" viewBox="0 0 14 14" fill="none" xmlns="http://www.w3.org/2000/svg">
<path d="M10.37 2.90601C10.2218 2.90547 10.0767 2.94899 9.95314 3.03104C9.82962 3.11308 9.73326 3.22996 9.67627 3.36685C9.61927 3.50375 9.60422 3.65448 9.63302 3.79994C9.66181 3.9454 9.73316 4.07903 9.83801 4.18388C9.94287 4.28873 10.0765 4.36008 10.222 4.38887C10.3674 4.41767 10.5181 4.40262 10.655 4.34562C10.7919 4.28863 10.9088 4.19227 10.9909 4.06875C11.0729 3.94524 11.1164 3.80014 11.1159 3.65186C11.1159 3.45405 11.0373 3.26434 10.8974 3.12446C10.7576 2.98459 10.5678 2.90601 10.37 2.90601ZM7.05305 3.86341C6.43218 3.86287 5.82511 4.04652 5.30866 4.39112C4.7922 4.73572 4.38958 5.22578 4.15174 5.79928C3.9139 6.37278 3.85153 7.00395 3.97252 7.61291C4.09351 8.22187 4.39243 8.78126 4.83145 9.22028C5.27047 9.65929 5.82985 9.95821 6.43881 10.0792C7.04777 10.2002 7.67894 10.1378 8.25244 9.89999C8.82594 9.66214 9.316 9.25952 9.6606 8.74307C10.0052 8.22661 10.1889 7.61954 10.1883 6.99868C10.1869 6.16759 9.8561 5.37096 9.26843 4.78329C8.68077 4.19562 7.88413 3.86484 7.05305 3.86341V3.86341ZM7.05305 9.01653C6.65545 9.01707 6.26662 8.89966 5.93577 8.67915C5.60492 8.45865 5.3469 8.14496 5.19438 7.77778C5.04185 7.4106 5.00166 7.00643 5.0789 6.6164C5.15614 6.22638 5.34733 5.86803 5.62829 5.58669C5.90925 5.30535 6.26734 5.11368 6.65726 5.03591C7.04718 4.95815 7.45141 4.99779 7.81879 5.14982C8.18618 5.30185 8.50022 5.55944 8.72117 5.88999C8.94212 6.22055 9.06005 6.60921 9.06005 7.00681C9.0579 7.53794 8.84559 8.04663 8.46951 8.42169C8.09344 8.79675 7.58418 9.00768 7.05305 9.0084V9.01653Z" fill="black"/>
<path d="M9.54007 13.3669H4.45746C3.44367 13.3655 2.47181 12.9621 1.75496 12.2453C1.0381 11.5284 0.634736 10.5566 0.633301 9.54278V4.45746C0.634736 3.44367 1.0381 2.47181 1.75496 1.75496C2.47181 1.0381 3.44367 0.634736 4.45746 0.633301H9.54007C10.5543 0.634018 11.5269 1.03706 12.2443 1.754C12.9618 2.47094 13.3655 3.4432 13.3669 4.45746V9.54278C13.3655 10.557 12.9618 11.5293 12.2443 12.2462C11.5269 12.9632 10.5543 13.3662 9.54007 13.3669V13.3669ZM4.45746 1.83208C3.76139 1.8328 3.09403 2.10963 2.60183 2.60183C2.10963 3.09403 1.8328 3.76139 1.83208 4.45746V9.54278C1.8328 10.2389 2.10963 10.9062 2.60183 11.3984C3.09403 11.8906 3.76139 12.1674 4.45746 12.1682H9.54007C10.2366 12.1682 10.9047 11.8916 11.3975 11.3994C11.8902 10.9071 12.1674 10.2393 12.1682 9.54278V4.45746C12.1674 3.76092 11.8902 3.09315 11.3975 2.60087C10.9047 2.1086 10.2366 1.83208 9.54007 1.83208H4.45746Z" fill="black"/>
</svg>
