<svg width="16" height="12" viewBox="0 0 16 12" fill="none" xmlns="http://www.w3.org/2000/svg">
<path d="M14.9609 1.60772C14.507 1.80173 14.0304 1.93751 13.5424 2.01183C13.7703 1.97386 14.1066 1.56161 14.2395 1.39346C14.4506 1.13946 14.6117 0.84772 14.7141 0.533701C14.7141 0.509291 14.7358 0.479457 14.7141 0.460472C14.7024 0.454296 14.6894 0.451069 14.6761 0.451069C14.6629 0.451069 14.6499 0.454296 14.6382 0.460472C14.1055 0.744222 13.5398 0.961032 12.9539 1.10597C12.9334 1.11206 12.9115 1.11223 12.8909 1.10647C12.8703 1.10072 12.8517 1.08926 12.8373 1.07342C12.7919 1.02042 12.743 0.970579 12.6908 0.924253C12.4484 0.715009 12.1736 0.546475 11.8772 0.425214C11.4773 0.268178 11.047 0.204183 10.6187 0.238074C10.2046 0.266494 9.80088 0.381039 9.43351 0.574383C9.06519 0.763168 8.73938 1.02529 8.47611 1.34464C8.20356 1.67946 8.00817 2.07024 7.90384 2.48918C7.81538 2.88661 7.80525 3.29749 7.87401 3.6988C7.87401 3.76661 7.87401 3.77474 7.81705 3.76661C5.49272 3.42216 3.5942 2.59495 2.03199 0.821191C1.96419 0.74525 1.92893 0.74525 1.87197 0.821191C1.19122 1.8491 1.5221 3.49268 2.37373 4.30633C2.48648 4.41745 2.60508 4.52246 2.72902 4.62094C2.33939 4.59109 1.95957 4.48415 1.61161 4.30633C1.5438 4.26565 1.51126 4.29006 1.50583 4.366C1.50061 4.47656 1.50606 4.58737 1.5221 4.69688C1.59186 5.21704 1.7976 5.7096 2.11855 6.12484C2.4395 6.54008 2.86431 6.86331 3.35011 7.0619C3.46945 7.11328 3.59404 7.15148 3.72167 7.17581C3.36435 7.24669 2.99773 7.25769 2.63681 7.20835C2.55815 7.19208 2.52832 7.23276 2.55815 7.3087C3.04092 8.62139 4.07968 9.01195 4.85807 9.23435C4.96385 9.25333 5.06691 9.25333 5.17269 9.27774C5.17269 9.27774 5.15913 9.27774 5.1537 9.29673C4.88248 9.68999 3.99832 9.98291 3.58335 10.1294C2.81916 10.4023 2.005 10.5069 1.19664 10.4358C1.06917 10.4169 1.04205 10.4169 1.00679 10.4358C0.971534 10.4548 1.00679 10.4874 1.04205 10.5199C1.20478 10.6284 1.37022 10.7233 1.54109 10.8155C2.04813 11.0849 2.58282 11.2986 3.13585 11.4529C5.9999 12.2449 9.22738 11.6617 11.3808 9.52455C13.0597 7.83215 13.6509 5.51596 13.6509 3.19976C13.6509 3.10755 13.7594 3.05873 13.8218 3.00991C14.2507 2.67774 14.629 2.28488 14.9446 1.84368C14.9939 1.77912 15.0197 1.69974 15.0179 1.61857C15.0179 1.56975 15.0179 1.59416 14.9609 1.60772Z" fill="black"/>
</svg>
